M48
; DRILL file {KiCad 9.0.7} date 2026-01-30T17:55:17+0100
; FORMAT={-:-/ absolute / metric / decimal}
; #@! TF.CreationDate,2026-01-30T17:55:17+01:00
; #@! TF.GenerationSoftware,Kicad,Pcbnew,9.0.7
; #@! TF.FileFunction,Plated,1,2,PTH
FMAT,2
METRIC
; #@! TA.AperFunction,Plated,PTH,ViaDrill
T1C0.400
; #@! TA.AperFunction,Plated,PTH,ComponentDrill
T2C1.000
; #@! TA.AperFunction,Plated,PTH,ComponentDrill
T3C3.200
%
G90
G05
T1
X49.53Y-105.461
X51.41Y-114.3
X73.525Y-79.525
X73.625Y-70.3
X73.75Y-108.325
X73.775Y-117.425
X74.676Y-90.627
X74.727Y-98.298
X85.3Y-39.675
X85.375Y-42.075
X86.411Y-32.106
X86.8Y-34.35
X88.9Y-51.359
X92.151Y-33.884
X93.6Y-76.45
X93.6Y-85.525
X93.725Y-98.575
X93.775Y-117.25
X93.85Y-108.25
X100.228Y-34.188
X102.025Y-34.375
X108.255Y-48.616
X110.49Y-66.853
X110.5Y-52.425
X111.175Y-57.1
X111.275Y-31.6
X112.375Y-65.4
X114.775Y-43.45
X117.075Y-105.7
X118.55Y-77.075
T2
X63.998Y-30.175
X66.538Y-30.175
X69.078Y-30.175
X71.618Y-30.175
T3
X52.897Y-138.65
X52.997Y-31.492
X115.897Y-138.65
X115.997Y-31.492
M30
