M48
; DRILL file {KiCad 9.0.7} date 2026-01-30T17:55:17+0100
; FORMAT={-:-/ absolute / metric / decimal}
; #@! TF.CreationDate,2026-01-30T17:55:17+01:00
; #@! TF.GenerationSoftware,Kicad,Pcbnew,9.0.7
; #@! TF.FileFunction,NonPlated,1,2,NPTH
FMAT,2
METRIC
; #@! TA.AperFunction,NonPlated,NPTH,ComponentDrill
T1C1.702
; #@! TA.AperFunction,NonPlated,NPTH,ComponentDrill
T2C3.000
; #@! TA.AperFunction,NonPlated,NPTH,ComponentDrill
T3C3.988
%
G90
G05
T1
X59.804Y-127.21
X59.853Y-70.033
X59.853Y-89.033
X59.853Y-108.033
X69.964Y-127.21
X70.013Y-70.033
X70.013Y-89.033
X70.013Y-108.033
X79.845Y-127.21
X79.853Y-70.033
X79.853Y-89.033
X79.853Y-108.033
X90.005Y-127.21
X90.013Y-70.033
X90.013Y-89.033
X90.013Y-108.033
X99.853Y-70.033
X99.853Y-89.033
X99.853Y-108.033
X99.86Y-127.21
X110.013Y-70.033
X110.013Y-89.033
X110.013Y-108.033
X110.02Y-127.21
T2
X62.344Y-132.29
X62.393Y-75.113
X62.393Y-94.113
X62.393Y-113.113
X68.694Y-129.75
X68.743Y-72.573
X68.743Y-91.573
X68.743Y-110.573
X82.385Y-132.29
X82.393Y-75.113
X82.393Y-94.113
X82.393Y-113.113
X88.735Y-129.75
X88.743Y-72.573
X88.743Y-91.573
X88.743Y-110.573
X102.393Y-75.113
X102.393Y-94.113
X102.393Y-113.113
X102.4Y-132.29
X108.743Y-72.573
X108.743Y-91.573
X108.743Y-110.573
X108.75Y-129.75
T3
X64.884Y-127.21
X64.933Y-70.033
X64.933Y-89.033
X64.933Y-108.033
X84.925Y-127.21
X84.933Y-70.033
X84.933Y-89.033
X84.933Y-108.033
X104.933Y-70.033
X104.933Y-89.033
X104.933Y-108.033
X104.94Y-127.21
M30
